<?xml version="1.0" encoding="utf-8"?>
<!-- Generator: Adobe Illustrator 21.0.2, SVG Export Plug-In . SVG Version: 6.00 Build 0)  -->
<svg version="1.1" id="Layer_1" xmlns="http://www.w3.org/2000/svg" xmlns:xlink="http://www.w3.org/1999/xlink" x="0px" y="0px"
	 width="471.9px" height="370.4px" viewBox="0 0 471.9 370.4" style="enable-background:new 0 0 471.9 370.4;" xml:space="preserve"
	>
<g>
	<g>
		<rect style="fill:#D8D7D6;" width="471.9" height="370.4"/>
	</g>
	<g>
		<g>
			<defs>
				<rect id="SVGID_57_" x="50.3" width="371.3" height="370.4"/>
			</defs>
			<clipPath id="SVGID_2_">
				<use xlink:href="#SVGID_57_"  style="overflow:visible;"/>
			</clipPath>
			<rect x="63.8" style="clip-path:url(#SVGID_2_);fill:#FFFFFF;" width="344.2" height="370.4"/>
		</g>
		<rect x="80" y="19.8" style="fill:#E44D41;" width="44.2" height="44.2"/>
		<rect x="344.1" y="119.2" style="fill:#C4C8CB;" width="45.1" height="45.1"/>
		<rect x="189.5" y="119.2" style="fill:#C4C8CB;" width="138" height="83.3"/>
		<rect x="344.1" y="172.6" style="fill:#C4C8CB;" width="45.1" height="45.1"/>
		<rect x="137" y="19.8" style="fill:#E44D41;" width="252.2" height="26.2"/>
		<rect x="63.8" y="84.2" style="fill:#E44D41;" width="344.2" height="22.1"/>
		<rect x="137" y="51.8" style="fill:#E44D41;" width="252.2" height="12.2"/>
		<rect x="80" y="93.4" style="fill:#EAEAEA;" width="20" height="3.9"/>
		<rect x="245.7" y="93.4" style="fill:#EAEAEA;" width="20" height="3.9"/>
		<rect x="218" y="93.4" style="fill:#EAEAEA;" width="20" height="3.9"/>
		<rect x="190.4" y="93.4" style="fill:#EAEAEA;" width="20" height="3.9"/>
		<rect x="162.8" y="93.4" style="fill:#EAEAEA;" width="20" height="3.9"/>
		<rect x="135.2" y="93.4" style="fill:#EAEAEA;" width="20" height="3.9"/>
		<rect x="107.6" y="93.4" style="fill:#EAEAEA;" width="20" height="3.9"/>
		<rect x="80" y="143.4" style="fill:#C4C8CB;" width="97.6" height="3.9"/>
		<rect x="80" y="152.6" style="fill:#C4C8CB;" width="91.3" height="3.9"/>
		<rect x="80" y="161.8" style="fill:#C4C8CB;" width="93.6" height="3.9"/>
		<rect x="80" y="171" style="fill:#C4C8CB;" width="87.1" height="3.9"/>
		<rect x="80" y="180.2" style="fill:#C4C8CB;" width="92.5" height="3.9"/>
		<rect x="80" y="189.4" style="fill:#C4C8CB;" width="87.1" height="3.9"/>
		<rect x="80" y="198.6" style="fill:#C4C8CB;" width="91.3" height="3.9"/>
		<rect x="80" y="119.2" style="fill:#C4C8CB;" width="61" height="16.7"/>
		<rect x="80" y="217.7" style="fill:#C4C8CB;" width="61" height="13.7"/>
		<rect x="80.9" y="329.5" style="fill:#C4C8CB;" width="235.7" height="3.9"/>
		<rect x="80.9" y="338.7" style="fill:#C4C8CB;" width="227.8" height="3.9"/>
		<rect x="80.9" y="347.9" style="fill:#C4C8CB;" width="230.6" height="3.9"/>
		<g>
			<rect x="80" y="236.6" style="fill:#C4C8CB;" width="247.6" height="87.1"/>
			<g>
				<path style="fill:#FFFFFF;" d="M214.7,288.6h-21.8c-1.6,0-2.9-1.3-2.9-2.9v-11c0-1.6,1.3-2.9,2.9-2.9h21.8
					c1.6,0,2.9,1.3,2.9,2.9v11C217.6,287.3,216.3,288.6,214.7,288.6z"/>
				<g>
					<path style="fill:#C4C8CB;" d="M201.3,276.8l4.9,3.3l-4.9,3.3V276.8z"/>
				</g>
			</g>
		</g>
	</g>
</g>
</svg>
